<svg viewBox="0 0 200 150" xmlns="http://www.w3.org/2000/svg" role="img" aria-label="Mountain Climbers demo">
  <defs>
    <marker id="arrowhead" markerWidth="6" markerHeight="6" refX="5" refY="3" orient="auto">
      <path d="M0,0 L6,3 L0,6 Z" fill="#7DD3FC"/>
    </marker>
  </defs>
  <rect x="0" y="0" width="200" height="150" rx="6" fill="#12161c"/>
  <g stroke="#5B6472" fill="none" stroke-width="3.5" stroke-linecap="round" opacity="0.65" stroke-dasharray="4,3">
<line x1="84.1" y1="41.5" x2="140.2" y2="46.4"/>
<line x1="140.2" y1="46.4" x2="169.7" y2="43.8"/>
<line x1="169.7" y1="43.8" x2="172.0" y2="70.4"/>
<line x1="84.1" y1="41.5" x2="128.3" y2="45.4"/>
<line x1="128.3" y1="45.4" x2="169.7" y2="49.0"/>
</g>
<circle cx="159.3" cy="48.1" r="9" fill="#12161c" stroke="#5B6472" stroke-width="3.5" opacity="0.65"/>
<g stroke="#FFB020" fill="none" stroke-width="3.5" stroke-linecap="round" opacity="0.95">
<line x1="84.1" y1="41.5" x2="140.2" y2="46.4"/>
<line x1="140.2" y1="46.4" x2="169.7" y2="43.8"/>
<line x1="169.7" y1="43.8" x2="172.0" y2="70.4"/>
<line x1="84.1" y1="41.5" x2="68.9" y2="83.3"/>
<line x1="68.9" y1="83.3" x2="28.0" y2="90.5"/>
</g>
<circle cx="159.3" cy="48.1" r="9" fill="#12161c" stroke="#FFB020" stroke-width="3.5" opacity="0.95"/>
  <path d="M 128.3 45.4 Q 98.60000000000001 54.349999999999994 68.9 83.3" stroke="#7DD3FC" stroke-width="2" fill="none" stroke-dasharray="3,3" marker-end="url(#arrowhead)"/>
  <text x="100" y="138" text-anchor="middle" font-family="Arial, sans-serif" font-size="11" font-weight="700" fill="#E7ECF3">Mountain Climbers</text>
</svg>